<svg width="32" height="32" viewBox="0 0 32 32" xmlns="http://www.w3.org/2000/svg" xmlns:xlink="http://www.w3.org/1999/xlink">
  <title>
    Spectre.css Logo
  </title>
  <defs>
    <rect id="a" width="32" height="32" rx="16"/>
    <path d="M20.897 20.91c-.02-.393-.092-.745-.217-1.056-.148-.37-.41-.71-.79-1.02-.376-.31-.885-.6-1.526-.87-.64-.27-1.452-.55-2.437-.835-1.032-.295-1.967-.63-2.803-1.006-.836-.376-1.55-.808-2.136-1.298-.588-.49-1.04-1.05-1.355-1.676-.316-.628-.473-1.346-.473-2.154v-.128h2.782v.085c0 .438.092.837.28 1.198.185.363.474.696.866 1 .392.304.896.585 1.513.84.617.258 1.356.505 2.216.743 1.185.333 2.208.7 3.068 1.106.86.403 1.57.862 2.13 1.375.56.514.974 1.09 1.247 1.726.25.585.386 1.24.407 1.97h-2.77zm-4.827 3.516v2.24c-.53-.016-1.06-.074-1.59-.172-.642-.12-1.256-.298-1.844-.535-.587-.24-1.132-.534-1.634-.886-.502-.35-.94-.76-1.312-1.226-.373-.466-.664-.99-.875-1.57-.21-.58-.315-1.216-.315-1.91h2.767c0 .713.14 1.323.423 1.832.282.51.66.93 1.133 1.263.473.332 1.018.577 1.634.734.516.13 1.054.208 1.613.23zm0-19.09c.062-.002.124-.003.187-.003 1.176 0 2.222.176 3.14.528.917.353 1.69.82 2.315 1.4.626.58 1.102 1.25 1.427 2.01.324.76.486 1.545.486 2.354H20.86c0-.58-.094-1.118-.28-1.612-.187-.495-.47-.923-.853-1.284-.383-.36-.86-.642-1.434-.84-.574-.2-1.252-.3-2.036-.3h-.187V5.336z" id="b"/>
  </defs>
  <g fill="none" fill-rule="evenodd">
    <g>
      <use fill="#5755d9" xlink:href="#a"/>
      <rect stroke-opacity=".1" stroke="#000" stroke-width=".5" x=".25" y=".25" width="31.5" height="31.5" rx="15.75"/>
    </g>
    <g>
      <use fill="#f1f1fc" xlink:href="#b"/>
      <path stroke="#fff" stroke-width=".5" d="M21.128 20.66h2.276c-.04-.596-.166-1.135-.373-1.62-.257-.604-.652-1.15-1.186-1.64-.54-.496-1.228-.94-2.066-1.335-.847-.398-1.857-.762-3.03-1.09-.868-.24-1.616-.492-2.243-.753-.636-.265-1.16-.556-1.57-.875-.42-.325-.733-.686-.937-1.08-.18-.352-.282-.736-.303-1.15H9.41c.016.72.165 1.36.446 1.92.3.597.73 1.13 1.292 1.597.57.474 1.262.895 2.078 1.262.825.37 1.748.7 2.77.993.994.287 1.815.568 2.466.844.66.28 1.19.58 1.588.907.41.335.697.71.862 1.12.11.274.18.574.216.9zm-5.308 4.003c-.49-.032-.966-.107-1.424-.224-.646-.165-1.218-.422-1.717-.773-.505-.355-.908-.804-1.208-1.346-.27-.485-.42-1.054-.45-1.703H8.756c.022.57.12 1.094.295 1.576.202.555.48 1.054.835 1.5.358.446.778.838 1.26 1.177.487.34 1.015.626 1.585.857.572.23 1.17.405 1.795.52.432.08.864.133 1.295.158v-1.742zm.5-19.08v1.754c.784.006 1.47.11 2.055.313.606.21 1.114.51 1.523.896.41.388.716.848.916 1.378.17.45.266.934.29 1.45h2.267c-.03-.687-.183-1.355-.46-2.006-.312-.728-.767-1.37-1.368-1.926-.6-.557-1.346-1.007-2.235-1.347-.87-.335-1.866-.505-2.987-.51z"/>
    </g>
  </g>
</svg>
